<svg xmlns="http://www.w3.org/2000/svg" viewBox="0 0 64 64" width="64" height="64" role="img" aria-label="DeenTong logo: silhouette of a girl with long hair">
<circle cx="32" cy="32" r="32" fill="#1F5A8A"/>
<g fill="#F6F3EC">
<clipPath id="c"><circle cx="32" cy="32" r="32"/></clipPath>
<g clip-path="url(#c)">
<path d="M9 66c1-13 11-19 23-19s22 6 23 19z"/>
<rect x="28" y="36" width="8" height="13" rx="3"/>
<path d="M32 11c-10 0-14 8-13.500 17 .3 7-1.500 13-6 18 8 3 15 2 19.500-1.500 4.500 3.500 11.500 4.500 19.500 1.500-4.500-5-6.300-11-6-18C46 19 42 11 32 11z"/>
</g></g></svg>
